<svg width="24" height="32" viewBox="0 0 24 32" fill="none" xmlns="http://www.w3.org/2000/svg">
<path d="M6.04217 22.6624C5.50146 22.1193 5.78333 22.2724 4.47915 21.9218C3.88741 21.7624 3.36724 21.4562 2.89684 21.0893L0.0738131 28.0418C-0.199343 28.7149 0.31088 29.4462 1.0339 29.4187L4.31239 29.2931L6.56733 31.6856C7.0651 32.2131 7.9387 32.0487 8.21186 31.3756L11.4505 23.3993C10.776 23.7768 10.0275 23.9981 9.25346 23.9981C8.04012 23.9981 6.90021 23.5237 6.04217 22.6624ZM23.8178 28.0418L20.9948 21.0893C20.5244 21.4568 20.0042 21.7624 19.4125 21.9218C18.1015 22.2743 18.3889 22.1206 17.8495 22.6624C16.9914 23.5237 15.8509 23.9981 14.6375 23.9981C13.8635 23.9981 13.115 23.7762 12.4405 23.3993L15.6791 31.3756C15.9523 32.0487 16.8265 32.2131 17.3237 31.6856L19.5792 29.2931L22.8577 29.4187C23.5808 29.4462 24.091 28.7143 23.8178 28.0418ZM16.3636 21.2481C17.3144 20.2762 17.4232 20.3599 18.7772 19.9893C19.6415 19.7524 20.3172 19.0618 20.5487 18.1781C21.0141 16.4031 20.8934 16.6174 22.1633 15.3187C22.7961 14.6718 23.0432 13.7287 22.8117 12.8449C22.3469 11.0712 22.3463 11.3187 22.8117 9.54306C23.0432 8.65931 22.7961 7.71619 22.1633 7.06931C20.8934 5.77056 21.0141 5.98431 20.5487 4.20994C20.3172 3.32619 19.6415 2.63556 18.7772 2.39869C17.0424 1.92306 17.2515 2.04744 15.9803 0.748062C15.3475 0.101188 14.4247 -0.151937 13.5605 0.0849375C11.8263 0.559937 12.0684 0.560562 10.3311 0.0849375C9.46688 -0.151937 8.54413 0.100563 7.91133 0.748062C6.64137 2.04681 6.85044 1.92306 5.11506 2.39869C4.25079 2.63556 3.57506 3.32619 3.34359 4.20994C2.87879 5.98431 2.99888 5.77056 1.72892 7.06931C1.09612 7.71619 0.84848 8.65931 1.08057 9.54306C1.54537 11.3156 1.54599 11.0681 1.08057 12.8443C0.849102 13.7281 1.09612 14.6712 1.72892 15.3187C2.99888 16.6174 2.87817 16.4031 3.34359 18.1781C3.57506 19.0618 4.25079 19.7524 5.11506 19.9893C6.50759 20.3706 6.6115 20.3106 7.52804 21.2481C8.35124 22.0899 9.63364 22.2406 10.623 21.6118C11.0186 21.3595 11.4775 21.2256 11.9461 21.2256C12.4147 21.2256 12.8737 21.3595 13.2693 21.6118C14.258 22.2406 15.5404 22.0899 16.3636 21.2481ZM6.07577 10.9956C6.07577 7.68119 8.70404 4.99431 11.9458 4.99431C15.1876 4.99431 17.8159 7.68119 17.8159 10.9956C17.8159 14.3099 15.1876 16.9968 11.9458 16.9968C8.70404 16.9968 6.07577 14.3099 6.07577 10.9956Z" fill="#FFA62B"/>
</svg>
